HIERARCHY
ROOT Hips
{
	OFFSET 0.00000 0.00000 0.00000
	CHANNELS 6 Xposition Yposition Zposition Zrotation Yrotation Xrotation 
	JOINT LHipJoint
	{
		OFFSET 0 0 0
		CHANNELS 3 Zrotation Yrotation Xrotation
		JOINT LeftHip
		{
			OFFSET 1.36337 -1.57426 1.11036
			CHANNELS 3 Zrotation Yrotation Xrotation
			JOINT LeftKnee
			{
				OFFSET 2.38468 -6.55187 0.00000
				CHANNELS 3 Zrotation Yrotation Xrotation
				JOINT LeftAnkle
				{
					OFFSET 2.37166 -6.51609 0.00000
					CHANNELS 3 Zrotation Yrotation Xrotation
					JOINT LeftToe
					{
						OFFSET 0.29078 -0.79891 2.01393
						CHANNELS 3 Zrotation Yrotation Xrotation
						End Site
						{
							OFFSET 0.00000 -0.00000 1.07924
						}
					}
				}
			}
		}
	}
	JOINT RHipJoint
	{
		OFFSET 0 0 0
		CHANNELS 3 Zrotation Yrotation Xrotation
		JOINT RightHip
		{
			OFFSET -1.36349 -1.57426 1.11036
			CHANNELS 3 Zrotation Yrotation Xrotation
			JOINT RightKnee
			{
				OFFSET -2.29562 -6.30717 0.00000
				CHANNELS 3 Zrotation Yrotation Xrotation
				JOINT RightAnkle
				{
					OFFSET -2.40985 -6.62100 0.00000
					CHANNELS 3 Zrotation Yrotation Xrotation
					JOINT RightToe
					{
						OFFSET -0.23197 -0.63733 1.92232
						CHANNELS 3 Zrotation Yrotation Xrotation
						End Site
						{
							OFFSET -0.00000 -0.00000 1.01562
						}
					}
				}
			}
		}
	}
	JOINT lowerback
	{
		OFFSET 0 0 0
		CHANNELS 3 Zrotation Yrotation Xrotation
		JOINT Chest
		{
			OFFSET -0.08565 2.03602 -0.24562
			CHANNELS 3 Zrotation Yrotation Xrotation
			JOINT Chest2
			{
				OFFSET -0.00036 2.05693 0.00216
				CHANNELS 3 Zrotation Yrotation Xrotation
				JOINT lowerneck
				{
					OFFSET 0 0 0
					CHANNELS 3 Zrotation Yrotation Xrotation
					JOINT Neck
					{
						OFFSET -0.03664 1.69515 0.31789
						CHANNELS 3 Zrotation Yrotation Xrotation
						JOINT Head
						{
							OFFSET 0.00932 1.70181 -0.46013
							CHANNELS 3 Zrotation Yrotation Xrotation
							End Site
							{
								OFFSET 0.01243 1.77620 -0.19377
							}
						}
					}
				}
				JOINT LeftCollar
				{
					OFFSET 0 0 0
					CHANNELS 3 Zrotation Yrotation Xrotation
					JOINT LeftShoulder
					{
						OFFSET 3.74344 0.81315 -0.36647
CHANNELS 3 Zrotation Xrotation Yrotation
						JOINT LeftElbow
						{
OFFSET 0 -4.971850 -0.000000
CHANNELS 3 Zrotation Xrotation Yrotation
							JOINT LeftWrist
							{
OFFSET 0 -3.358110 0.000000
CHANNELS 3 Zrotation Xrotation Yrotation
								JOINT lhand
								{
									OFFSET 0 0 0
CHANNELS 3 Zrotation Xrotation Yrotation
									JOINT LFingers
									{
OFFSET 0 -0.622780 0.000000
CHANNELS 3 Zrotation Xrotation Yrotation
										End Site
										{
OFFSET 0 -0.502100 0.000000
										}
									}
								}
								JOINT LThumb
								{
OFFSET 0 0.000000 0.000000
CHANNELS 3 Zrotation Xrotation Yrotation
									End Site
									{
OFFSET 0 -0.509760 0.509760
									}
								}
							}
						}
					}
				}
				JOINT RightCollar
				{
					OFFSET 0 0 0
					CHANNELS 3 Zrotation Yrotation Xrotation
					JOINT RightShoulder
					{
						OFFSET -3.75385 0.50666 -0.06525
CHANNELS 3 Zrotation Xrotation Yrotation
						JOINT RightElbow
						{
OFFSET 0 -4.964930 -0.000000
CHANNELS 3 Zrotation Xrotation Yrotation
							JOINT RightWrist
							{
OFFSET 0 -3.349290 0.000000
CHANNELS 3 Zrotation Xrotation Yrotation
								JOINT rhand
								{
									OFFSET 0 0 0
CHANNELS 3 Zrotation Xrotation Yrotation
									JOINT RFingers
									{
OFFSET 0 -0.638040 0.000000
CHANNELS 3 Zrotation Xrotation Yrotation
										End Site
										{
OFFSET 0 -0.514410 0.000000
										}
									}
								}
								JOINT RThumb
								{
OFFSET 0 0.000000 0.000000
CHANNELS 3 Zrotation Xrotation Yrotation
									End Site
									{
OFFSET 0 -0.522260 0.522260
									}
								}
							}
						}
					}
				}
			}
		}
	}
}
MOTION
Frames: 8
Frame Time: 0.008333333333333333
16.353738 14.959226 -15.666872 -106.687800 -81.910394 -966.085616 0.000000 0.000000 0.000000 -14.008318 4.449988 -23.053519 22.328820 19.868150 96.823747 0.189756 7.280819 -13.880958 0.007629 0.526407 1.446583 0.000000 0.000000 0.000000 19.366105 1.083090 -28.290473 -7.608722 -15.820727 51.135514 -2.164749 2.118373 -27.282324 -0.511118 4.582118 -12.720517 9.175960 -2.378727 15.463713 2.403226 -1.908700 4.503305 -2.260252 -1.099160 -4.036166 6.711563 12.653707 -22.842064 -19.200931 20.731891 21.765120 -4.426097 7.111404 14.344675 0.000000 0.000000 0.000000 11.530622 12.006645 -51.772982 36.527561 -45.872334 15.900101 29.451896 -20.605818 2.128397 0.000000 0.000000 0.000000 -7.125000 0.000000 0.000000 2.198988 27.527516 0.946077 0.000000 0.000000 0.000000 -28.979822 10.280195 49.567414 -41.202419 -48.764383 -19.339324 -11.207773 -2.176996 16.332102 0.000000 0.000000 0.000000 7.125000 0.000000 0.000000 15.545080 46.011545 -0.397799
14.877568 15.185732 -15.606862 -92.597773 -81.449678 -979.774167 0.000000 0.000000 0.000000 -12.544591 0.521039 -36.433915 22.300565 19.867714 96.741610 0.591747 6.694183 -18.443561 0.009915 -0.290803 -0.799284 0.000000 0.000000 0.000000 20.693810 -1.691645 -18.420467 -5.645335 -14.055829 43.502843 -2.165324 -0.462074 -28.026975 -0.925849 6.102967 -17.091876 9.457808 -0.960078 14.159750 2.163419 -0.129549 4.378981 -3.017250 -0.183764 -3.271236 6.138655 11.673327 -24.590547 -17.098371 19.285995 23.808612 -3.854761 6.486730 14.944468 0.000000 0.000000 0.000000 14.941731 18.197665 -54.829902 38.716646 -47.285242 17.492109 24.787693 -21.032469 4.836018 0.000000 0.000000 0.000000 -7.125000 0.000000 0.000000 -1.401178 24.663285 -0.706972 0.000000 0.000000 0.000000 -27.793325 8.286893 47.323055 -46.588213 -51.499975 -23.482175 -10.351791 -3.777951 17.920841 0.000000 0.000000 0.000000 7.125000 0.000000 0.000000 16.886145 47.443353 -1.040189
13.235406 15.617871 -15.472797 -79.172116 -81.459618 -992.225948 0.000000 0.000000 0.000000 -12.861149 -3.194573 -44.636437 18.448418 19.922048 85.456162 1.080020 5.694208 -22.459967 0.005129 0.460996 1.266830 0.000000 0.000000 0.000000 20.585403 -3.752452 -6.918329 -3.244997 -11.056489 32.499477 -1.325838 -1.699871 -22.370999 -1.382944 7.440328 -21.027022 7.773078 0.651555 11.231530 2.140200 1.551452 4.044550 -2.325085 0.715083 -1.892367 4.641322 10.434339 -26.345549 -15.055456 17.817934 26.065211 -3.158883 5.758567 15.643884 0.000000 0.000000 0.000000 18.376517 24.150187 -59.027559 42.296885 -49.366238 20.167699 19.246358 -19.807263 7.905767 0.000000 0.000000 0.000000 -7.125000 0.000000 0.000000 -5.508182 21.625977 -3.106265 0.000000 0.000000 0.000000 -27.688892 9.156651 47.512843 -54.417871 -54.613280 -29.744660 -13.040491 -11.725817 17.599241 0.000000 0.000000 0.000000 7.125000 0.000000 0.000000 14.300513 47.491358 -0.897843
11.490383 16.121587 -15.266188 -70.575003 -80.796433 -999.340017 0.000000 0.000000 0.000000 -13.235403 -4.695965 -48.789633 12.200824 18.451912 66.597685 1.186532 4.640517 -22.731557 0.000955 0.183778 0.504873 0.000000 0.000000 0.000000 20.215854 -5.627359 3.817614 -1.264743 -7.100018 20.023222 0.016959 -6.659584 -8.707947 -1.222321 6.990093 -19.694574 6.015094 2.522213 7.546240 2.196690 3.645474 3.458639 -1.368127 1.806757 -0.401552 3.018268 9.058421 -28.147627 -12.896414 16.201927 28.567281 -2.414274 4.978645 16.538942 0.000000 0.000000 0.000000 22.675742 29.193726 -63.994383 47.302654 -51.844409 24.037216 15.562203 -22.082992 9.698265 0.000000 0.000000 0.000000 -7.125000 0.000000 0.000000 -8.135756 19.969567 -4.917774 0.000000 0.000000 0.000000 -27.219521 11.880884 46.907214 -62.277667 -56.884435 -36.243193 -13.077705 -17.635298 15.388465 0.000000 0.000000 0.000000 7.125000 0.000000 0.000000 13.553797 45.313513 -0.105997
9.649251 16.569556 -14.987678 -69.694793 -79.638077 -997.942907 0.000000 0.000000 0.000000 -13.946484 -3.248880 -51.092462 6.646225 14.977834 47.434709 0.687122 4.956410 -18.148958 0.030321 1.044363 2.871624 0.000000 0.000000 0.000000 19.344830 -9.150513 14.007401 -0.091320 -1.492562 4.113699 0.382882 -17.573447 7.962895 -0.486482 4.470983 -12.405790 5.222893 4.280133 1.653991 1.871272 5.585676 3.136182 -0.921612 2.852635 2.629065 1.467558 7.914293 -29.698445 -10.350348 14.577501 30.045547 -1.453148 4.382583 16.944414 0.000000 0.000000 0.000000 27.624071 32.431017 -68.165502 52.199333 -53.836876 27.942463 13.810371 -23.273359 11.929733 0.000000 0.000000 0.000000 -7.125000 0.000000 0.000000 -9.325295 17.803730 -6.116944 0.000000 0.000000 0.000000 -26.442477 13.175071 47.281356 -66.274493 -57.761587 -39.607556 -11.616802 -20.220816 12.602550 0.000000 0.000000 0.000000 7.125000 0.000000 0.000000 14.064491 42.400395 0.921007
7.902726 16.760348 -14.680691 -68.546108 -76.410310 -998.258259 0.000000 0.000000 0.000000 -13.306960 -1.000820 -52.332879 3.892615 12.004832 35.764692 0.367536 6.099797 -15.314346 0.133859 2.212472 6.098305 0.000000 0.000000 0.000000 20.888651 -11.765905 19.176947 0.000000 0.000000 0.000000 0.522224 -26.112898 15.055444 -0.138283 2.332655 -6.429029 6.686813 5.405065 -2.071021 2.116074 6.804864 2.610962 -1.086566 3.515802 4.394659 0.638724 7.035594 -29.450290 -8.163415 12.995866 31.285549 -0.769451 3.937262 17.039474 0.000000 0.000000 0.000000 32.514155 34.657848 -70.791531 56.983827 -55.446229 31.844988 9.052349 -20.117707 15.437900 0.000000 0.000000 0.000000 -7.125000 0.000000 0.000000 -12.484049 14.608678 -9.165814 0.000000 0.000000 0.000000 -25.228256 14.472333 48.078914 -66.333989 -57.773795 -39.657831 -11.724095 -21.034084 11.258932 0.000000 0.000000 0.000000 7.125000 0.000000 0.000000 13.625395 41.083878 1.344012
6.244977 16.670450 -14.351322 -68.092858 -75.521933 -1000.476694 0.000000 0.000000 0.000000 -13.758178 0.043859 -49.903882 3.468866 11.417359 33.701496 -0.043767 12.189326 -16.738922 0.199978 2.849698 7.863055 0.000000 0.000000 0.000000 20.617556 -10.828962 14.524782 -1.107535 -6.661499 18.726620 1.468956 -26.605075 7.927797 -0.110473 2.132459 -5.872180 6.152857 5.791897 -1.746211 2.131107 7.405609 2.070978 -0.814647 3.781636 3.618234 0.284845 6.725782 -27.528181 -6.759055 12.161813 32.090998 -0.357169 3.799600 16.762595 0.000000 0.000000 0.000000 36.391986 36.396781 -71.871393 61.246865 -56.633049 35.380572 4.612858 -16.518976 16.037778 0.000000 0.000000 0.000000 -7.125000 0.000000 0.000000 -15.396847 14.281926 -11.555323 0.000000 0.000000 0.000000 -25.120413 15.965735 50.149538 -63.304784 -57.127373 -37.104317 -10.319121 -21.558366 12.135970 0.000000 0.000000 0.000000 7.125000 0.000000 0.000000 15.066461 41.816324 1.213591
4.666898 16.258062 -14.039165 -58.203986 -76.421935 -1014.187112 0.000000 0.000000 0.000000 -18.553775 3.500585 -45.820329 4.707358 13.030990 39.511076 0.265378 9.299000 -16.856260 1.203012 6.883328 19.401068 0.000000 0.000000 0.000000 16.104341 -12.938285 11.283978 -4.256088 -12.417717 37.341856 1.318183 -21.813297 1.594203 -0.361955 3.826170 -10.592766 3.331962 5.119598 0.819266 1.793448 6.708483 2.791841 0.102485 3.378477 2.586348 1.091350 7.108079 -26.268397 -6.773038 12.306813 31.944661 -0.497947 4.008196 16.467331 0.000000 0.000000 0.000000 38.118128 34.755188 -70.794238 62.094574 -56.842687 36.089332 7.053564 -17.681742 17.091097 0.000000 0.000000 0.000000 -7.125000 0.000000 0.000000 -13.757351 13.116105 -10.594037 0.000000 0.000000 0.000000 -24.462446 16.347534 50.797976 -58.737247 -55.958847 -33.293652 -10.754121 -20.636310 13.648325 0.000000 0.000000 0.000000 7.125000 0.000000 0.000000 15.112196 43.338904 0.634412
